<?xml version="1.0" encoding="UTF-8" standalone="no"?>
<!-- Created with Inkscape (http://www.inkscape.org/) -->

<svg
   xmlns:dc="http://purl.org/dc/elements/1.1/"
   xmlns:cc="http://creativecommons.org/ns#"
   xmlns:rdf="http://www.w3.org/1999/02/22-rdf-syntax-ns#"
   xmlns:svg="http://www.w3.org/2000/svg"
   xmlns="http://www.w3.org/2000/svg"
   xmlns:sodipodi="http://sodipodi.sourceforge.net/DTD/sodipodi-0.dtd"
   xmlns:inkscape="http://www.inkscape.org/namespaces/inkscape"
   width="744.09448819"
   height="1052.3622047"
   id="svg2"
   version="1.1"
   inkscape:version="0.48.5 r10040"
   sodipodi:docname="New document 1">
  <defs
     id="defs4" />
  <sodipodi:namedview
     id="base"
     pagecolor="#ffffff"
     bordercolor="#666666"
     borderopacity="1.0"
     inkscape:pageopacity="0.0"
     inkscape:pageshadow="2"
     inkscape:zoom="0.7"
     inkscape:cx="206.38247"
     inkscape:cy="552.84167"
     inkscape:document-units="px"
     inkscape:current-layer="layer1"
     showgrid="false"
     inkscape:window-width="1920"
     inkscape:window-height="1062"
     inkscape:window-x="0"
     inkscape:window-y="1"
     inkscape:window-maximized="1" />
  <metadata
     id="metadata7">
    <rdf:RDF>
      <cc:Work
         rdf:about="">
        <dc:format>image/svg+xml</dc:format>
        <dc:type
           rdf:resource="http://purl.org/dc/dcmitype/StillImage" />
        <dc:title></dc:title>
      </cc:Work>
    </rdf:RDF>
  </metadata>
  <g
     inkscape:label="Layer 1"
     inkscape:groupmode="layer"
     id="layer1">
    <path
       sodipodi:type="arc"
       style="fill:#ffffff"
       id="path2987"
       sodipodi:cx="449.51788"
       sodipodi:cy="547.03339"
       sodipodi:rx="19.697975"
       sodipodi:ry="19.445436"
       d="m 469.21586,547.03339 a 19.697975,19.445436 0 1 1 -39.39595,0 19.697975,19.445436 0 1 1 39.39595,0 z"
       transform="translate(118.77958,223.9565)" />
    <path
       sodipodi:type="arc"
       style="fill:#000000"
       id="path2995"
       sodipodi:cx="416.94046"
       sodipodi:cy="550.82147"
       sodipodi:rx="32.072342"
       sodipodi:ry="30.809652"
       d="m 449.0128,550.82147 a 32.072342,30.809652 0 1 1 -64.14468,0 32.072342,30.809652 0 1 1 64.14468,0 z"
       transform="translate(118.77958,223.9565)" />
    <path
       sodipodi:type="arc"
       style="fill:#ffffff"
       id="path2997"
       sodipodi:cx="416.68793"
       sodipodi:cy="550.82147"
       sodipodi:rx="25.75889"
       sodipodi:ry="25.253813"
       d="m 442.44682,550.82147 a 25.75889,25.253813 0 1 1 -51.51778,0 25.75889,25.253813 0 1 1 51.51778,0 z"
       transform="translate(118.77958,223.9565)" />
    <path
       sodipodi:type="arc"
       style="fill:#000000"
       id="path3001"
       sodipodi:cx="417.44553"
       sodipodi:cy="552.33667"
       sodipodi:rx="16.414978"
       sodipodi:ry="16.162441"
       d="m 433.8605,552.33667 a 16.414978,16.162441 0 1 1 -32.82995,0 16.414978,16.162441 0 1 1 32.82995,0 z"
       transform="translate(118.27451,221.9362)" />
    <path
       sodipodi:type="arc"
       style="fill:#000000"
       id="path3003"
       sodipodi:cx="321.73358"
       sodipodi:cy="552.33667"
       sodipodi:rx="34.850262"
       sodipodi:ry="32.324883"
       d="m 356.58384,552.33667 a 34.850262,32.324883 0 1 1 -69.70052,0 34.850262,32.324883 0 1 1 69.70052,0 z"
       transform="translate(-225.68244,-310.41419)" />
    <path
       style="fill:#000000;stroke:#000000;stroke-width:1px;stroke-linecap:butt;stroke-linejoin:miter;stroke-opacity:1"
       d="m 136.96233,240.91233 101.52033,-0.50508 -16.66752,-13.13198 0.50508,24.24366 14.14213,-11.11168"
       id="path3005"
       inkscape:connector-curvature="0" />
    <path
       sodipodi:type="arc"
       style="fill:#aad400"
       id="path3018"
       sodipodi:cx="313.65237"
       sodipodi:cy="68.978676"
       sodipodi:rx="71.215752"
       sodipodi:ry="23.738585"
       d="m 384.86813,68.978676 a 71.215752,23.738585 0 1 1 -142.43151,0 71.215752,23.738585 0 1 1 142.43151,0 z"
       transform="matrix(1.4219858,0,0,1.5106383,-103.22832,135.19526)" />
    <text
       xml:space="preserve"
       style="font-size:12px;font-style:normal;font-weight:normal;line-height:125%;letter-spacing:0px;word-spacing:0px;fill:#000000;fill-opacity:1;stroke:none;font-family:Sans"
       x="259.69586"
       y="229.80064"
       id="text3020"
       sodipodi:linespacing="125%"><tspan
         sodipodi:role="line"
         x="259.69586"
         y="229.80064"
         id="tspan3024">Избрана функционалност,</tspan><tspan
         sodipodi:role="line"
         x="259.69586"
         y="244.80064"
         id="tspan3028">обработка на заявка за </tspan><tspan
         sodipodi:role="line"
         x="259.69586"
         y="259.80066"
         id="tspan3030">брокер</tspan></text>
    <path
       style="fill:#000000;stroke:#000000;stroke-width:1px;stroke-linecap:butt;stroke-linejoin:miter;stroke-opacity:1"
       d="m 441.77586,238.89202 101.52033,-0.50507 -16.66752,-13.13199 0.50508,24.24366 14.14213,-11.11167"
       id="path3005-2"
       inkscape:connector-curvature="0" />
    <path
       sodipodi:type="arc"
       style="fill:#aad400"
       id="path3018-2"
       sodipodi:cx="313.65237"
       sodipodi:cy="68.978676"
       sodipodi:rx="71.215752"
       sodipodi:ry="23.738585"
       d="m 384.86813,68.978676 a 71.215752,23.738585 0 1 1 -142.43151,0 71.215752,23.738585 0 1 1 142.43151,0 z"
       transform="matrix(1.0638298,0,0,1.4255319,289.42551,138.54041)" />
    <text
       xml:space="preserve"
       style="font-size:12px;font-style:normal;font-weight:normal;line-height:125%;letter-spacing:0px;word-spacing:0px;fill:#000000;fill-opacity:1;stroke:none;font-family:Sans"
       x="569.81268"
       y="226.26512"
       id="text3068"
       sodipodi:linespacing="125%"><tspan
         sodipodi:role="line"
         id="tspan3070"
         x="569.81268"
         y="226.26512">Преглед на спи-</tspan><tspan
         sodipodi:role="line"
         x="569.81268"
         y="241.26512"
         id="tspan3072">сък със заявки за</tspan><tspan
         sodipodi:role="line"
         x="569.81268"
         y="256.26511"
         id="tspan3074">брокер</tspan></text>
    <path
       sodipodi:type="arc"
       style="fill:#aad400"
       id="path3018-8"
       sodipodi:cx="313.65237"
       sodipodi:cy="68.978676"
       sodipodi:rx="71.215752"
       sodipodi:ry="23.738585"
       d="m 384.86813,68.978676 a 71.215752,23.738585 0 1 1 -142.43151,0 71.215752,23.738585 0 1 1 142.43151,0 z"
       transform="matrix(1.0744681,0,0,1.1489362,81.78543,281.86839)" />
    <text
       xml:space="preserve"
       style="font-size:12px;font-style:normal;font-weight:normal;line-height:125%;letter-spacing:0px;word-spacing:0px;fill:#000000;fill-opacity:1;stroke:none;font-family:Sans"
       x="364.75168"
       y="364.65604"
       id="text3112"
       sodipodi:linespacing="125%"><tspan
         sodipodi:role="line"
         id="tspan3114"
         x="364.75168"
         y="364.65604">Избор на заявка</tspan></text>
    <path
       style="fill:#000000;stroke:#000000;stroke-width:1px;stroke-linecap:butt;stroke-linejoin:miter;stroke-opacity:1"
       d="m 621.83555,271.2169 1.01015,66.16499 -20.20305,24.24366 22.22336,18.18275 18.18274,-20.20305 -18.68782,-20.20305"
       id="path3118"
       inkscape:connector-curvature="0" />
    <text
       xml:space="preserve"
       style="font-size:12px;font-style:normal;font-weight:normal;line-height:125%;letter-spacing:0px;word-spacing:0px;fill:#000000;fill-opacity:1;stroke:none;font-family:Sans"
       x="655.6756"
       y="334.35144"
       id="text3120"
       sodipodi:linespacing="125%"><tspan
         sodipodi:role="line"
         id="tspan3122"
         x="655.6756"
         y="334.35144">Списъка е</tspan><tspan
         sodipodi:role="line"
         x="655.6756"
         y="349.35144"
         id="tspan3124">празен</tspan></text>
    <text
       xml:space="preserve"
       style="font-size:12px;font-style:normal;font-weight:normal;line-height:125%;letter-spacing:0px;word-spacing:0px;fill:#000000;fill-opacity:1;stroke:none;font-family:Sans"
       x="523.3457"
       y="333.34128"
       id="text3126"
       sodipodi:linespacing="125%"><tspan
         sodipodi:role="line"
         id="tspan3128"
         x="523.3457"
         y="333.34128">Списъка не</tspan><tspan
         sodipodi:role="line"
         x="523.3457"
         y="348.34128"
         id="tspan3130">е празен</tspan></text>
    <path
       style="fill:none;stroke:#000000;stroke-width:1px;stroke-linecap:butt;stroke-linejoin:miter;stroke-opacity:1"
       d="m 642.0386,359.10017 44.95179,-0.50507"
       id="path3136"
       inkscape:connector-curvature="0" />
    <path
       style="fill:#000000;stroke:#000000;stroke-width:1px;stroke-linecap:butt;stroke-linejoin:miter;stroke-opacity:1"
       d="m 598.35009,360.6352 -101.52052,0.46548 16.66239,13.13848 -0.49562,-24.24385 -14.14646,11.10616"
       id="path3005-0"
       inkscape:connector-curvature="0" />
    <path
       style="fill:#000000;stroke:#000000;stroke-width:1px;stroke-linecap:butt;stroke-linejoin:miter;stroke-opacity:1"
       d="m 343.27743,362.87708 -101.51633,1.03252 16.73552,13.0452 -0.63103,-24.2407 -14.08421,11.185"
       id="path3005-7"
       inkscape:connector-curvature="0" />
    <path
       sodipodi:type="arc"
       style="fill:#aad400"
       id="path3018-0"
       sodipodi:cx="313.65237"
       sodipodi:cy="68.978676"
       sodipodi:rx="71.215752"
       sodipodi:ry="23.738585"
       d="m 384.86813,68.978676 a 71.215752,23.738585 0 1 1 -142.43151,0 71.215752,23.738585 0 1 1 142.43151,0 z"
       transform="matrix(1.4078014,0,0,2.0531915,-302.57762,220.75674)" />
    <text
       xml:space="preserve"
       style="font-size:12px;font-style:normal;font-weight:normal;line-height:125%;letter-spacing:0px;word-spacing:0px;fill:#000000;fill-opacity:1;stroke:none;font-family:Sans"
       x="74.33287"
       y="338.39206"
       id="text3181"
       sodipodi:linespacing="125%"><tspan
         sodipodi:role="line"
         id="tspan3183"
         x="74.33287"
         y="338.39206">Проверка дали</tspan><tspan
         sodipodi:role="line"
         x="74.33287"
         y="353.39206"
         id="tspan3185">описанието на акаунта</tspan><tspan
         sodipodi:role="line"
         x="74.33287"
         y="368.39206"
         id="tspan3189">подал заявка се среща </tspan><tspan
         sodipodi:role="line"
         x="74.33287"
         y="383.39206"
         id="tspan3193">в артефакта &quot;Списък</tspan><tspan
         sodipodi:role="line"
         x="74.33287"
         y="398.39206"
         id="tspan3195">с брокер&quot;</tspan></text>
    <path
       style="fill:#f9f9f9;stroke:#000000;stroke-width:1px;stroke-linecap:butt;stroke-linejoin:miter;stroke-opacity:1"
       d="m 685.98024,358.09002 0,419.71838 -115.66247,-1.51523 15.65737,-12.6269 0,24.24366 -11.61676,-11.61676"
       id="path3197"
       inkscape:connector-curvature="0" />
    <path
       style="fill:#1a1a1a;stroke:#000000;stroke-width:1px;stroke-linecap:butt;stroke-linejoin:miter;stroke-opacity:1"
       d="m 569.81269,776.79825 14.64722,7.57615 0.50507,-21.21321 z"
       id="path3199"
       inkscape:connector-curvature="0" />
    <path
       style="fill:#000000;stroke:#000000;stroke-width:0.90138px;stroke-linecap:butt;stroke-linejoin:miter;stroke-opacity:1"
       d="m 126.35573,410.01462 1.01015,53.75813 -20.20305,19.69763 22.22336,14.77323 18.18274,-16.41469 -18.68782,-16.4147"
       id="path3118-4"
       inkscape:connector-curvature="0" />
    <text
       xml:space="preserve"
       style="font-size:12px;font-style:normal;font-weight:normal;line-height:125%;letter-spacing:0px;word-spacing:0px;fill:#000000;fill-opacity:1;stroke:none;font-family:Sans"
       x="66.756721"
       y="473.75247"
       id="text3219"
       sodipodi:linespacing="125%"><tspan
         sodipodi:role="line"
         id="tspan3221"
         x="66.756721"
         y="473.75247">Не</tspan></text>
    <path
       style="fill:none;stroke:#000000;stroke-width:1px;stroke-linecap:butt;stroke-linejoin:miter;stroke-opacity:1"
       d="m 106.65775,481.83371 -79.80205,0 0,97.47972 0,186.37314 25.253814,0"
       id="path3223"
       inkscape:connector-curvature="0" />
    <path
       sodipodi:type="arc"
       style="fill:#aad400"
       id="path3018-0-2"
       sodipodi:cx="313.65237"
       sodipodi:cy="68.978676"
       sodipodi:rx="71.215752"
       sodipodi:ry="23.738585"
       d="m 384.86813,68.978676 a 71.215752,23.738585 0 1 1 -142.43151,0 71.215752,23.738585 0 1 1 142.43151,0 z"
       transform="matrix(1.4078014,0,0,2.0531915,-288.94056,623.04999)" />
    <text
       xml:space="preserve"
       style="font-size:12px;font-style:normal;font-weight:normal;line-height:125%;letter-spacing:0px;word-spacing:0px;fill:#000000;fill-opacity:1;stroke:none;font-family:Sans"
       x="75.848099"
       y="746.99878"
       id="text3243"
       sodipodi:linespacing="125%"><tspan
         sodipodi:role="line"
         id="tspan3245"
         x="75.848099"
         y="746.99878">Системата изпращя</tspan><tspan
         sodipodi:role="line"
         x="75.848099"
         y="761.99878"
         id="tspan3249">съобщение до потребите-</tspan><tspan
         sodipodi:role="line"
         x="75.848099"
         y="776.99878"
         id="tspan3253">ля, че заявката му е от-</tspan><tspan
         sodipodi:role="line"
         x="75.848099"
         y="791.99878"
         id="tspan3255">хвърлена</tspan></text>
    <path
       style="fill:#000000;stroke:#000000;stroke-width:1px;stroke-linecap:butt;stroke-linejoin:miter;stroke-opacity:1"
       d="m 52.61459,764.67642 -13.637059,-15.65736 0,29.29442 z"
       id="path3257"
       inkscape:connector-curvature="0" />
    <path
       style="fill:#000000;stroke:#000000;stroke-width:1px;stroke-linecap:butt;stroke-linejoin:miter;stroke-opacity:1"
       d="m 146.30624,481.32863 101.52033,-0.50508 -16.66752,-13.13198 0.50508,24.24366 14.14213,-11.11168"
       id="path3005-03"
       inkscape:connector-curvature="0" />
    <text
       xml:space="preserve"
       style="font-size:12px;font-style:normal;font-weight:normal;line-height:125%;letter-spacing:0px;word-spacing:0px;fill:#000000;fill-opacity:1;stroke:none;font-family:Sans"
       x="176.35828"
       y="471.22711"
       id="text3288"
       sodipodi:linespacing="125%"><tspan
         sodipodi:role="line"
         id="tspan3290"
         x="176.35828"
         y="471.22711">Да</tspan></text>
    <path
       sodipodi:type="arc"
       style="fill:#aad400"
       id="path3018-8-5"
       sodipodi:cx="313.65237"
       sodipodi:cy="68.978676"
       sodipodi:rx="71.215752"
       sodipodi:ry="23.738585"
       d="m 384.86813,68.978676 a 71.215752,23.738585 0 1 1 -142.43151,0 71.215752,23.738585 0 1 1 142.43151,0 z"
       transform="matrix(1.1312057,0,0,1.3297873,-25.408964,388.33896)" />
    <text
       xml:space="preserve"
       style="font-size:12px;font-style:normal;font-weight:normal;line-height:125%;letter-spacing:0px;word-spacing:0px;fill:#000000;fill-opacity:1;stroke:none;font-family:Sans"
       x="278.38373"
       y="468.70169"
       id="text3310"
       sodipodi:linespacing="125%"><tspan
         sodipodi:role="line"
         id="tspan3312"
         x="278.38373"
         y="468.70169">Системата дава</tspan><tspan
         sodipodi:role="line"
         x="278.38373"
         y="483.70169"
         id="tspan3314">права за брокер</tspan><tspan
         sodipodi:role="line"
         x="278.38373"
         y="498.70169"
         id="tspan3316">на потребителя</tspan></text>
    <path
       style="fill:none;stroke:#000000;stroke-width:0.84339947px;stroke-linecap:butt;stroke-linejoin:miter;stroke-opacity:1"
       d="m 408.82165,478.29818 127.90091,0 0,50.50762 -5.38908,-7.57614 12.21525,0 -7.72262,6.26813"
       id="path3320"
       inkscape:connector-curvature="0" />
    <path
       style="fill:#000000;stroke:#000000;stroke-width:1px;stroke-linecap:butt;stroke-linejoin:miter;stroke-opacity:1"
       d="m 528.39644,520.72458 c 10.10153,8.58629 8.08122,8.08122 8.08122,8.08122 l 9.59645,-7.07107 z"
       id="path3322"
       inkscape:connector-curvature="0" />
    <path
       sodipodi:type="arc"
       style="fill:#aad400"
       id="path3018-8-2"
       sodipodi:cx="313.65237"
       sodipodi:cy="68.978676"
       sodipodi:rx="71.215752"
       sodipodi:ry="23.738585"
       d="m 384.86813,68.978676 a 71.215752,23.738585 0 1 1 -142.43151,0 71.215752,23.738585 0 1 1 142.43151,0 z"
       transform="matrix(1.2943263,0,0,1.3936171,127.98378,465.25337)" />
    <text
       xml:space="preserve"
       style="font-size:12px;font-style:normal;font-weight:normal;line-height:125%;letter-spacing:0px;word-spacing:0px;fill:#000000;fill-opacity:1;stroke:none;font-family:Sans"
       x="467.78729"
       y="552.03931"
       id="text3342"
       sodipodi:linespacing="125%"><tspan
         sodipodi:role="line"
         id="tspan3344"
         x="467.78729"
         y="552.03931">Системата уведомява</tspan><tspan
         sodipodi:role="line"
         x="467.78729"
         y="567.03931"
         id="tspan3346">потребителя за нови-</tspan><tspan
         sodipodi:role="line"
         x="467.78729"
         y="582.03931"
         id="tspan3348">те му права</tspan></text>
    <path
       style="fill:#000000;stroke:#000000;stroke-width:1.70684898px;stroke-linecap:butt;stroke-linejoin:miter;stroke-opacity:1"
       d="m 250.70538,768.98853 250.82114,-0.59557 -41.1796,-15.48495 1.24788,28.58759 34.94024,-13.10264"
       id="path3005-5"
       inkscape:connector-curvature="0" />
    <path
       style="fill:#000000;stroke:#000000;stroke-width:1.31522632px;stroke-linecap:butt;stroke-linejoin:miter;stroke-opacity:1"
       d="m 537.50935,593.36698 1.04264,152.21504 15.07444,-25.06834 -27.96688,0.90005 12.88328,21.13908"
       id="path3005-8"
       inkscape:connector-curvature="0" />
  </g>
</svg>
